# xmcd
#
# Track frame offsets: 
#        150
#        12725
#        27935
#        41148
#        54953
#        68578
#        81315
#        95530
#        113695
#        127185
#        144528
#        157433
#        167603
#        178895
#        192575
#        204620
#
# Disc length: 2888 seconds
#
# Revision: 0
# Processed by: cddbd v1.5.2PL0 Copyright (c) Steve Scherf et al.
# Submitted via: ExactAudioCopy v0.99pb3
#
DISCID=ef0b4610
DTITLE=Jesse Thomas - Blues Moved In
DYEAR=1993
DGENRE=Blues
TTITLE0=Let's Have Some Fun
TTITLE1=I'm Gonna Move To California
TTITLE2=We Belong Together
TTITLE3=Gumbo Blues
TTITLE4=Logansport, Louisiana
TTITLE5=Ice Cream
TTITLE6=Crying Blues
TTITLE7=Blues Moved In
TTITLE8=Rain Sleet Or Snow
TTITLE9=My Baby Come Easing Back
TTITLE10=Now's The Time
TTITLE11=Jack 'O Diamond
TTITLE12=Never Find Another Fool
TTITLE13=Take Some And Leave Some
TTITLE14=I Wonder Why
TTITLE15=I'm Looking For The Woman
EXTD=
EXTT0=
EXTT1=
EXTT2=
EXTT3=
EXTT4=
EXTT5=
EXTT6=
EXTT7=
EXTT8=
EXTT9=
EXTT10=
EXTT11=
EXTT12=
EXTT13=
EXTT14=
EXTT15=
PLAYORDER=
